# xmcd
#
# Track frame offsets: 
#        150
#        17451
#        31566
#        53493
#        72172
#        88779
#        102639
#        119434
#        134742
#        146148
#
# Disc length: 2156 seconds
#
# Revision: 0
# Processed by: cddbd v1.5.2PL0 Copyright (c) Steve Scherf et al.
# Submitted via: ExactAudioCopy v1.1
#
DISCID=88086a0a
DTITLE=Hank Shizzoe - This Place Belongs To The Birds
DYEAR=2015
DGENRE=Blues Rock
TTITLE0=Because It's ''There
TTITLE1=Away I Go
TTITLE2=This Place Belongs To The Birds
TTITLE3=Ballad Of The Warm Bed
TTITLE4=I Miss The Plains
TTITLE5=Don't Know What It Is
TTITLE6=The Abominable Snowman
TTITLE7=Ain't Worth The Trouble
TTITLE8=I Wanna Be Loved By You
TTITLE9=End Of The Line
EXTD=
EXTT0=
EXTT1=
EXTT2=
EXTT3=
EXTT4=
EXTT5=
EXTT6=
EXTT7=
EXTT8=
EXTT9=
PLAYORDER=
